<svg xmlns="http://www.w3.org/2000/svg" version="1.1" xmlns:xlink="http://www.w3.org/1999/xlink" xmlns:svgjs="http://svgjs.dev/svgjs" width="1920" height="1080" preserveAspectRatio="none" viewBox="0 0 1920 1080"><g mask="url(&quot;#SvgjsMask1015&quot;)" fill="none"><rect width="1920" height="1080" x="0" y="0" fill="rgba(242, 241, 235, 1)"></rect><path d="M-199.38 622.39C18.66 610.9 154.34 208.57 577.22 222.79 1000.1 237.01 1047.75 1168.92 1353.82 1294.77" stroke="rgba(175, 200, 173, 1)" stroke-width="2"></path><path d="M-297.91 883.67C-161.56 884.73-33.68 1018.67 230.55 1018.67 494.78 1018.67 492.98 883.46 759.01 883.67 1025.04 883.88 1140.53 1135.55 1287.47 1142.37" stroke="rgba(175, 200, 173, 1)" stroke-width="2"></path><path d="M-377.26 702.93C-169.04 698.74 81.11 407.75 407.05 422.13 732.99 436.51 614.88 1125.19 799.2 1267.78" stroke="rgba(175, 200, 173, 1)" stroke-width="2"></path><path d="M-45.12 772.42C179.25 747.46 402.56 249.44 694.26 254.02 985.96 258.6 884.26 977.87 1063.95 1135.36" stroke="rgba(175, 200, 173, 1)" stroke-width="2"></path><path d="M-313.73 875.42C-138.75 871.29 3.6 624.6 340.82 627.02 678.04 629.44 781.23 1162.1 995.37 1200.73" stroke="rgba(175, 200, 173, 1)" stroke-width="2"></path></g><defs><mask id="SvgjsMask1015"><rect width="1920" height="1080" fill="#ffffff"></rect></mask></defs></svg>